<svg width="40" height="42" viewBox="0 0 40 42" fill="none" xmlns="http://www.w3.org/2000/svg">
<g clip-path="url(#clip0_1_1744)">
<path fill-rule="evenodd" clip-rule="evenodd" d="M39.2277 20.9995C39.2277 32.2618 30.6498 41.3928 20.0698 41.3928C9.48984 41.3928 0.911987 32.2618 0.911987 20.9995C0.911987 9.73722 9.48984 0.606201 20.0698 0.606201C30.6521 0.606201 39.2277 9.73722 39.2277 20.9995ZM10.3637 21.6848L10.4463 21.5464L15.43 13.2473C15.5029 13.1258 15.6741 13.1383 15.7292 13.2703C16.5618 15.2566 17.2802 17.7269 16.9437 19.2648C16.8 19.8975 16.4063 20.7544 15.9634 21.5464C15.9064 21.6617 15.8434 21.7748 15.7765 21.8838C15.745 21.9341 15.6918 21.9634 15.6347 21.9634H10.5093C10.3715 21.9634 10.2908 21.8042 10.3637 21.6848ZM32.5778 24.5405V23.2269C32.5778 23.1053 32.4676 23.0173 32.3593 23.0509L26.5312 24.8444C26.4997 24.8527 26.4721 24.8716 26.4505 24.8967C25.8263 25.6307 25.2958 26.1232 25.1553 26.2537L25.1455 26.2628C24.7834 26.5897 24.3346 26.7678 23.8622 26.7678H21.7522V24.4777H23.4292C23.4725 24.4777 23.5138 24.4609 23.5453 24.4316L23.7618 24.22C23.8543 24.1299 23.9646 24.0209 24.0964 23.8805C24.1076 23.8686 24.119 23.8565 24.1305 23.8443C24.1998 23.7708 24.2738 23.6923 24.3464 23.6061C24.433 23.516 24.5176 23.4154 24.5963 23.3169C24.7282 23.1661 24.8542 23.0089 24.9861 22.8434C25.0806 22.7345 25.1672 22.6109 25.2518 22.4872C25.3463 22.3699 25.4388 22.2379 25.5254 22.1122C25.5576 22.0618 25.5919 22.0108 25.627 21.9587C25.6604 21.9091 25.6945 21.8584 25.7281 21.8063C25.7911 21.7057 25.8541 21.5989 25.9072 21.4983C26.0726 21.2259 26.2123 20.9346 26.3304 20.6434C26.3846 20.5187 26.4279 20.3874 26.4701 20.2598C26.4754 20.2437 26.4806 20.2277 26.4859 20.2118C26.5332 20.063 26.5725 19.9227 26.602 19.7739C26.6729 19.424 26.6886 19.0762 26.6571 18.7284C26.6493 18.6194 26.6414 18.5126 26.6178 18.412V18.3953C26.6099 18.324 26.5942 18.2444 26.5725 18.1711C26.5017 17.8316 26.3914 17.4922 26.2517 17.1591C26.2044 17.0354 26.1493 16.9097 26.0962 16.7945C25.9702 16.5452 25.8383 16.2958 25.6888 16.0549C25.6587 16.004 25.6256 15.9525 25.5925 15.901C25.567 15.8613 25.5415 15.8217 25.5175 15.7825C25.4228 15.627 25.3163 15.477 25.2129 15.3315C25.1895 15.2986 25.1664 15.266 25.1435 15.2336C25.0825 15.1483 25.0157 15.063 24.9485 14.9772C24.9117 14.9301 24.8747 14.8829 24.8385 14.8355C24.7361 14.7035 24.6357 14.5778 24.5334 14.4541C24.1673 14.0141 23.7835 13.6161 23.441 13.2766C23.378 13.2096 23.3091 13.1425 23.2382 13.0776C22.9725 12.8199 22.7304 12.5957 22.5277 12.4218C22.4668 12.3719 22.4121 12.3227 22.3613 12.277C22.3267 12.2459 22.2938 12.2163 22.262 12.1892C22.2005 12.1405 22.1472 12.0972 22.1024 12.0609C22.0741 12.0379 22.0491 12.0177 22.0277 12.0006C22.012 11.9881 21.9943 11.9797 21.9766 11.9734L21.7522 11.9064V9.92846C21.7522 9.60579 21.6301 9.31666 21.4353 9.10501C21.2404 8.89341 20.9688 8.76351 20.6696 8.76351C20.0713 8.76351 19.5871 9.28521 19.5871 9.92846V11.261L19.4749 11.2275L19.1698 11.1353L18.8922 11.0536C18.8914 11.0536 18.8906 11.0532 18.8897 11.0528C18.8883 11.0522 18.8867 11.0515 18.8844 11.0515H18.8785L16.7724 10.4439C16.6799 10.4166 16.6012 10.5235 16.6484 10.6136L16.985 11.2757C17.0041 11.3266 17.0283 11.3775 17.0532 11.4297C17.0693 11.4636 17.0856 11.498 17.1011 11.5334C17.1562 11.6507 17.2113 11.7743 17.2645 11.898C17.3117 12.0069 17.359 12.1138 17.4141 12.2311C17.4372 12.2862 17.4608 12.3421 17.4848 12.3987C17.5728 12.6066 17.6653 12.8253 17.7565 13.0608L17.7565 13.0608C17.8353 13.2599 17.914 13.4589 17.9829 13.6663C18.1719 14.188 18.351 14.7454 18.5065 15.3174C18.5452 15.4454 18.5761 15.5693 18.6075 15.6949C18.6208 15.7481 18.6341 15.8016 18.6482 15.8559L18.6698 15.9564C18.7328 16.2225 18.7879 16.4865 18.8273 16.7526C18.8588 16.9349 18.8883 17.1088 18.904 17.2848C18.9277 17.4838 18.9513 17.6829 18.9592 17.8819C18.9749 18.0642 18.9828 18.2549 18.9828 18.4372C18.9828 18.9023 18.9434 19.3507 18.8509 19.7739C18.8451 19.7966 18.8393 19.8196 18.8335 19.8428C18.8076 19.9458 18.7807 20.0526 18.7486 20.1553C18.7195 20.2651 18.6818 20.375 18.6427 20.4891C18.6289 20.5294 18.6148 20.5704 18.6009 20.612C18.5983 20.6194 18.5957 20.6268 18.5932 20.6343C18.5642 20.7172 18.5347 20.8017 18.4986 20.8844C18.3037 21.3831 18.0616 21.8796 17.8117 22.3448C17.4456 23.0341 17.0775 23.6396 16.8196 24.0293C16.8039 24.0545 16.7885 24.0785 16.7737 24.1015C16.7552 24.1303 16.7376 24.1576 16.7212 24.1844C16.6405 24.3059 16.7232 24.4777 16.8629 24.4777H19.5871V26.7678H16.8314C16.0914 26.7678 15.4064 26.3215 15.0757 25.607C14.9045 25.2487 14.8376 24.8548 14.877 24.4693C14.8868 24.3541 14.8061 24.2451 14.6959 24.2451H9.12952C9.03504 24.2451 8.95829 24.3268 8.95829 24.4274V24.5489C8.95829 28.3287 11.8261 31.3919 15.3651 31.3919H25.3502C27.2219 31.3919 28.2847 29.5763 29.3293 27.7918C29.6205 27.2943 29.9103 26.7993 30.2158 26.3466C30.765 25.5337 32.0857 24.8883 32.4715 24.7123C32.5345 24.683 32.5778 24.616 32.5778 24.5405Z" fill="white"/>
</g>
<defs>
<clipPath id="clip0_1_1744">
<rect width="38.3157" height="40.7866" fill="white" transform="translate(0.911987 0.606201)"/>
</clipPath>
</defs>
</svg>
